<svg xmlns="http://www.w3.org/2000/svg" xmlns:xlink="http://www.w3.org/1999/xlink" width="500" zoomAndPan="magnify" viewBox="0 0 375 374.999991" height="500" preserveAspectRatio="xMidYMid meet" version="1.0"><defs><g/><clipPath id="292dff56db"><path d="M 8.890625 9.574219 L 366.128906 9.574219 L 366.128906 365.425781 L 8.890625 365.425781 Z M 8.890625 9.574219 " clip-rule="nonzero"/></clipPath><clipPath id="9a30b01190"><path d="M 26.140625 9.574219 L 348.859375 9.574219 C 353.433594 9.574219 357.820312 11.394531 361.054688 14.628906 C 364.289062 17.863281 366.109375 22.25 366.109375 26.824219 L 366.109375 348.175781 C 366.109375 352.75 364.289062 357.136719 361.054688 360.371094 C 357.820312 363.605469 353.433594 365.425781 348.859375 365.425781 L 26.140625 365.425781 C 21.566406 365.425781 17.179688 363.605469 13.945312 360.371094 C 10.710938 357.136719 8.890625 352.75 8.890625 348.175781 L 8.890625 26.824219 C 8.890625 22.25 10.710938 17.863281 13.945312 14.628906 C 17.179688 11.394531 21.566406 9.574219 26.140625 9.574219 Z M 26.140625 9.574219 " clip-rule="nonzero"/></clipPath><clipPath id="e71ff85506"><path d="M 0.890625 0.574219 L 358.128906 0.574219 L 358.128906 356.425781 L 0.890625 356.425781 Z M 0.890625 0.574219 " clip-rule="nonzero"/></clipPath><clipPath id="75dc828cae"><path d="M 18.140625 0.574219 L 340.859375 0.574219 C 345.433594 0.574219 349.820312 2.394531 353.054688 5.628906 C 356.289062 8.863281 358.109375 13.25 358.109375 17.824219 L 358.109375 339.175781 C 358.109375 343.75 356.289062 348.136719 353.054688 351.371094 C 349.820312 354.605469 345.433594 356.425781 340.859375 356.425781 L 18.140625 356.425781 C 13.566406 356.425781 9.179688 354.605469 5.945312 351.371094 C 2.710938 348.136719 0.890625 343.75 0.890625 339.175781 L 0.890625 17.824219 C 0.890625 13.25 2.710938 8.863281 5.945312 5.628906 C 9.179688 2.394531 13.566406 0.574219 18.140625 0.574219 Z M 18.140625 0.574219 " clip-rule="nonzero"/></clipPath><clipPath id="d47cee169e"><rect x="0" width="359" y="0" height="357"/></clipPath><clipPath id="5c9e8bcca8"><rect x="0" width="137" y="0" height="332"/></clipPath><clipPath id="0de03fd7cb"><rect x="0" width="140" y="0" height="340"/></clipPath></defs><g clip-path="url(#292dff56db)"><g clip-path="url(#9a30b01190)"><g transform="matrix(1, 0, 0, 1, 8, 9)"><g clip-path="url(#d47cee169e)"><g clip-path="url(#e71ff85506)"><g clip-path="url(#75dc828cae)"><path fill="#f5f5f5" d="M 0.890625 0.574219 L 358.128906 0.574219 L 358.128906 356.425781 L 0.890625 356.425781 Z M 0.890625 0.574219 " fill-opacity="1" fill-rule="nonzero"/></g></g></g></g></g></g><g transform="matrix(1, 0, 0, 1, 48, 43)"><g clip-path="url(#5c9e8bcca8)"><g fill="#000000" fill-opacity="1"><g transform="translate(0.968453, 272.565892)"><g><path d="M 67.890625 -256.65625 C 87.242188 -256.65625 101.519531 -250.90625 110.71875 -239.40625 C 119.914062 -227.914062 124.515625 -212.488281 124.515625 -193.125 L 124.515625 -186.234375 L 97.65625 -186.234375 L 97.65625 -194.578125 C 97.65625 -206.203125 95.351562 -215.160156 90.75 -221.453125 C 86.15625 -227.742188 78.773438 -230.890625 68.609375 -230.890625 C 58.441406 -230.890625 51.0625 -227.742188 46.46875 -221.453125 C 41.875 -215.160156 39.578125 -206.328125 39.578125 -194.953125 C 39.578125 -185.515625 41.691406 -177.285156 45.921875 -170.265625 C 50.160156 -163.242188 55.425781 -156.765625 61.71875 -150.828125 C 68.007812 -144.898438 74.84375 -139.09375 82.21875 -133.40625 C 89.601562 -127.71875 96.441406 -121.484375 102.734375 -114.703125 C 109.023438 -107.929688 114.285156 -100.25 118.515625 -91.65625 C 122.753906 -83.070312 124.875 -72.847656 124.875 -60.984375 C 124.875 -41.628906 120.210938 -26.203125 110.890625 -14.703125 C 101.578125 -3.203125 87.125 2.546875 67.53125 2.546875 C 47.925781 2.546875 33.523438 -3.203125 24.328125 -14.703125 C 15.128906 -26.203125 10.53125 -41.628906 10.53125 -60.984375 L 10.53125 -75.515625 L 37.03125 -75.515625 L 37.03125 -59.53125 C 37.03125 -47.914062 39.445312 -38.960938 44.28125 -32.671875 C 49.125 -26.378906 56.628906 -23.234375 66.796875 -23.234375 C 76.960938 -23.234375 84.460938 -26.378906 89.296875 -32.671875 C 94.140625 -38.960938 96.5625 -47.914062 96.5625 -59.53125 C 96.5625 -68.976562 94.441406 -77.148438 90.203125 -84.046875 C 85.972656 -90.941406 80.710938 -97.351562 74.421875 -103.28125 C 68.128906 -109.207031 61.351562 -115.015625 54.09375 -120.703125 C 46.832031 -126.390625 40.054688 -132.617188 33.765625 -139.390625 C 27.472656 -146.171875 22.207031 -153.859375 17.96875 -162.453125 C 13.726562 -171.046875 11.609375 -181.269531 11.609375 -193.125 C 11.609375 -212.726562 16.207031 -228.21875 25.40625 -239.59375 C 34.601562 -250.96875 48.765625 -256.65625 67.890625 -256.65625 Z M 67.890625 -256.65625 "/></g></g></g></g></g><g transform="matrix(1, 0, 0, 1, 182, 35)"><g clip-path="url(#0de03fd7cb)"><g fill="#000000" fill-opacity="1"><g transform="translate(2.02383, 273.027852)"><g><path d="M 67.890625 -263.476562 C 89.433594 -263.476562 105.484375 -256.878906 116.042969 -243.679688 C 126.234375 -230.941406 131.332031 -214.09375 131.332031 -193.140625 L 131.332031 -179.433594 L 90.851562 -179.433594 L 90.851562 -194.589844 C 90.851562 -204.726562 88.988281 -212.34375 85.265625 -217.441406 C 82.027344 -221.871094 76.476562 -224.089844 68.613281 -224.089844 C 60.753906 -224.089844 55.203125 -221.871094 51.964844 -217.441406 C 48.242188 -212.34375 46.378906 -204.847656 46.378906 -194.953125 C 46.378906 -186.777344 48.171875 -179.722656 51.753906 -173.785156 C 55.667969 -167.296875 60.546875 -161.300781 66.386719 -155.796875 C 72.515625 -150.023438 79.179688 -144.359375 86.382812 -138.808594 C 94.066406 -132.890625 101.179688 -126.40625 107.730469 -119.351562 C 114.472656 -112.089844 120.109375 -103.867188 124.640625 -94.679688 C 129.34375 -85.136719 131.695312 -73.910156 131.695312 -60.992188 C 131.695312 -40.019531 126.527344 -23.164062 116.199219 -10.417969 C 105.515625 2.761719 89.292969 9.347656 67.527344 9.347656 C 45.742188 9.347656 29.566406 2.75 19.007812 -10.449219 C 8.816406 -23.191406 3.722656 -40.035156 3.722656 -60.992188 L 3.722656 -82.320312 L 43.835938 -82.320312 L 43.835938 -59.539062 C 43.835938 -49.464844 45.789062 -41.894531 49.6875 -36.824219 C 53.164062 -32.300781 58.871094 -30.042969 66.800781 -30.042969 C 74.730469 -30.042969 80.433594 -32.300781 83.914062 -36.824219 C 87.8125 -41.894531 89.761719 -49.464844 89.761719 -59.539062 C 89.761719 -67.695312 87.980469 -74.675781 84.414062 -80.484375 C 80.496094 -86.867188 75.609375 -92.816406 69.753906 -98.332031 C 63.613281 -104.121094 56.992188 -109.792969 49.894531 -115.351562 C 42.351562 -121.261719 35.3125 -127.738281 28.773438 -134.777344 C 22.03125 -142.039062 16.394531 -150.265625 11.863281 -159.453125 C 7.160156 -168.992188 4.808594 -180.222656 4.808594 -193.140625 C 4.808594 -214.347656 9.914062 -231.265625 20.121094 -243.886719 C 30.679688 -256.949219 46.601562 -263.476562 67.890625 -263.476562 Z M 67.890625 -249.863281 C 50.933594 -249.863281 38.542969 -245.019531 30.707031 -235.328125 C 22.519531 -225.203125 18.425781 -211.136719 18.425781 -193.140625 C 18.425781 -182.335938 20.308594 -173.113281 24.074219 -165.472656 C 28.019531 -157.476562 32.910156 -150.332031 38.75 -144.039062 C 44.800781 -137.527344 51.3125 -131.535156 58.292969 -126.070312 C 65.714844 -120.253906 72.648438 -114.3125 79.09375 -108.238281 C 85.824219 -101.894531 91.464844 -95.019531 96.015625 -87.605469 C 100.921875 -79.617188 103.375 -70.261719 103.375 -59.539062 C 103.375 -46.378906 100.484375 -36.039062 94.703125 -28.523438 C 88.5 -20.460938 79.199219 -16.425781 66.800781 -16.425781 C 54.398438 -16.425781 45.097656 -20.460938 38.894531 -28.523438 C 33.113281 -36.039062 30.222656 -46.378906 30.222656 -59.539062 L 30.222656 -75.511719 L 37.03125 -75.511719 L 37.03125 -68.707031 L 10.527344 -68.707031 L 10.527344 -75.511719 L 17.335938 -75.511719 L 17.335938 -60.992188 C 17.335938 -43.222656 21.4375 -29.207031 29.640625 -18.957031 C 37.472656 -9.164062 50.101562 -4.265625 67.527344 -4.265625 C 84.96875 -4.265625 97.664062 -9.171875 105.621094 -18.988281 C 113.925781 -29.238281 118.078125 -43.238281 118.078125 -60.992188 C 118.078125 -71.792969 116.195312 -81.015625 112.429688 -88.660156 C 108.484375 -96.65625 103.59375 -103.800781 97.753906 -110.089844 C 91.71875 -116.589844 85.15625 -122.570312 78.074219 -128.027344 C 70.515625 -133.851562 63.503906 -139.804688 57.050781 -145.890625 C 50.304688 -152.246094 44.652344 -159.199219 40.097656 -166.75 C 35.207031 -174.851562 32.765625 -184.25 32.765625 -194.953125 C 32.765625 -207.8125 35.5 -217.984375 40.972656 -225.472656 C 46.933594 -233.625 56.144531 -237.703125 68.613281 -237.703125 C 81.085938 -237.703125 90.296875 -233.625 96.257812 -225.472656 C 101.730469 -217.984375 104.464844 -207.691406 104.464844 -194.589844 L 104.464844 -186.242188 L 97.660156 -186.242188 L 97.660156 -193.046875 L 124.523438 -193.046875 L 124.523438 -186.242188 L 117.714844 -186.242188 L 117.714844 -193.140625 C 117.714844 -210.910156 113.617188 -224.921875 105.414062 -235.175781 C 97.578125 -244.96875 85.070312 -249.863281 67.890625 -249.863281 Z M 67.890625 -249.863281 "/></g></g></g></g></g></svg>