<svg xmlns="http://www.w3.org/2000/svg" xmlns:xlink="http://www.w3.org/1999/xlink" width="500" zoomAndPan="magnify" viewBox="0 0 375 374.999991" height="500" preserveAspectRatio="xMidYMid meet" version="1.0"><defs><g/><clipPath id="ad8acd8b49"><path d="M 8.890625 9.574219 L 366.128906 9.574219 L 366.128906 365.425781 L 8.890625 365.425781 Z M 8.890625 9.574219 " clip-rule="nonzero"/></clipPath><clipPath id="8e40b79032"><path d="M 26.140625 9.574219 L 348.859375 9.574219 C 353.433594 9.574219 357.820312 11.394531 361.054688 14.628906 C 364.289062 17.863281 366.109375 22.25 366.109375 26.824219 L 366.109375 348.175781 C 366.109375 352.75 364.289062 357.136719 361.054688 360.371094 C 357.820312 363.605469 353.433594 365.425781 348.859375 365.425781 L 26.140625 365.425781 C 21.566406 365.425781 17.179688 363.605469 13.945312 360.371094 C 10.710938 357.136719 8.890625 352.75 8.890625 348.175781 L 8.890625 26.824219 C 8.890625 22.25 10.710938 17.863281 13.945312 14.628906 C 17.179688 11.394531 21.566406 9.574219 26.140625 9.574219 Z M 26.140625 9.574219 " clip-rule="nonzero"/></clipPath><clipPath id="2234d9c551"><path d="M 0.890625 0.574219 L 358.128906 0.574219 L 358.128906 356.425781 L 0.890625 356.425781 Z M 0.890625 0.574219 " clip-rule="nonzero"/></clipPath><clipPath id="cd9eb93a3c"><path d="M 18.140625 0.574219 L 340.859375 0.574219 C 345.433594 0.574219 349.820312 2.394531 353.054688 5.628906 C 356.289062 8.863281 358.109375 13.25 358.109375 17.824219 L 358.109375 339.175781 C 358.109375 343.75 356.289062 348.136719 353.054688 351.371094 C 349.820312 354.605469 345.433594 356.425781 340.859375 356.425781 L 18.140625 356.425781 C 13.566406 356.425781 9.179688 354.605469 5.945312 351.371094 C 2.710938 348.136719 0.890625 343.75 0.890625 339.175781 L 0.890625 17.824219 C 0.890625 13.25 2.710938 8.863281 5.945312 5.628906 C 9.179688 2.394531 13.566406 0.574219 18.140625 0.574219 Z M 18.140625 0.574219 " clip-rule="nonzero"/></clipPath><clipPath id="30bd801feb"><rect x="0" width="359" y="0" height="357"/></clipPath><clipPath id="5dc2af6dd2"><rect x="0" width="137" y="0" height="332"/></clipPath><clipPath id="5bbff0970d"><rect x="0" width="143" y="0" height="340"/></clipPath></defs><g clip-path="url(#ad8acd8b49)"><g clip-path="url(#8e40b79032)"><g transform="matrix(1, 0, 0, 1, 8, 9)"><g clip-path="url(#30bd801feb)"><g clip-path="url(#2234d9c551)"><g clip-path="url(#cd9eb93a3c)"><path fill="#f5f5f5" d="M 0.890625 0.574219 L 358.128906 0.574219 L 358.128906 356.425781 L 0.890625 356.425781 Z M 0.890625 0.574219 " fill-opacity="1" fill-rule="nonzero"/></g></g></g></g></g></g><g transform="matrix(1, 0, 0, 1, 48, 43)"><g clip-path="url(#5dc2af6dd2)"><g fill="#000000" fill-opacity="1"><g transform="translate(0.968453, 272.565878)"><g><path d="M 67.890625 -256.65625 C 87.242188 -256.65625 101.519531 -250.90625 110.71875 -239.40625 C 119.914062 -227.914062 124.515625 -212.488281 124.515625 -193.125 L 124.515625 -186.234375 L 97.65625 -186.234375 L 97.65625 -194.578125 C 97.65625 -206.203125 95.351562 -215.160156 90.75 -221.453125 C 86.15625 -227.742188 78.773438 -230.890625 68.609375 -230.890625 C 58.441406 -230.890625 51.0625 -227.742188 46.46875 -221.453125 C 41.875 -215.160156 39.578125 -206.328125 39.578125 -194.953125 C 39.578125 -185.515625 41.691406 -177.285156 45.921875 -170.265625 C 50.160156 -163.242188 55.425781 -156.765625 61.71875 -150.828125 C 68.007812 -144.898438 74.84375 -139.09375 82.21875 -133.40625 C 89.601562 -127.71875 96.441406 -121.484375 102.734375 -114.703125 C 109.023438 -107.929688 114.285156 -100.25 118.515625 -91.65625 C 122.753906 -83.070312 124.875 -72.847656 124.875 -60.984375 C 124.875 -41.628906 120.210938 -26.203125 110.890625 -14.703125 C 101.578125 -3.203125 87.125 2.546875 67.53125 2.546875 C 47.925781 2.546875 33.523438 -3.203125 24.328125 -14.703125 C 15.128906 -26.203125 10.53125 -41.628906 10.53125 -60.984375 L 10.53125 -75.515625 L 37.03125 -75.515625 L 37.03125 -59.53125 C 37.03125 -47.914062 39.445312 -38.960938 44.28125 -32.671875 C 49.125 -26.378906 56.628906 -23.234375 66.796875 -23.234375 C 76.960938 -23.234375 84.460938 -26.378906 89.296875 -32.671875 C 94.140625 -38.960938 96.5625 -47.914062 96.5625 -59.53125 C 96.5625 -68.976562 94.441406 -77.148438 90.203125 -84.046875 C 85.972656 -90.941406 80.710938 -97.351562 74.421875 -103.28125 C 68.128906 -109.207031 61.351562 -115.015625 54.09375 -120.703125 C 46.832031 -126.390625 40.054688 -132.617188 33.765625 -139.390625 C 27.472656 -146.171875 22.207031 -153.859375 17.96875 -162.453125 C 13.726562 -171.046875 11.609375 -181.269531 11.609375 -193.125 C 11.609375 -212.726562 16.207031 -228.21875 25.40625 -239.59375 C 34.601562 -250.96875 48.765625 -256.65625 67.890625 -256.65625 Z M 67.890625 -256.65625 "/></g></g></g></g></g><g transform="matrix(1, 0, 0, 1, 180, 35)"><g clip-path="url(#5bbff0970d)"><g fill="#000000" fill-opacity="1"><g transform="translate(0.935369, 273.027852)"><g><path d="M 71.15625 -263.476562 C 92.910156 -263.476562 109.125 -256.960938 119.804688 -243.921875 C 130.152344 -231.292969 135.324219 -214.363281 135.324219 -193.140625 L 135.324219 -181.613281 L 95.207031 -181.613281 L 95.207031 -194.953125 C 95.207031 -205.027344 93.257812 -212.601562 89.359375 -217.667969 C 85.878906 -222.191406 80.054688 -224.453125 71.882812 -224.453125 C 63.328125 -224.453125 57.308594 -222.011719 53.824219 -217.136719 C 49.828125 -211.542969 47.832031 -202.574219 47.832031 -190.234375 L 47.832031 -133.238281 L 41.023438 -133.238281 L 34.679688 -135.703125 C 38.578125 -145.726562 44.554688 -153.492188 52.609375 -159.003906 C 60.664062 -164.515625 70.480469 -167.273438 82.046875 -167.273438 C 100.890625 -167.273438 114.738281 -160.84375 123.59375 -147.988281 C 131.898438 -135.9375 136.050781 -120.007812 136.050781 -100.199219 L 136.050781 -61.71875 C 136.050781 -40.484375 130.753906 -23.433594 120.160156 -10.558594 C 109.238281 2.710938 92.902344 9.347656 71.15625 9.347656 C 49.425781 9.347656 33.039062 2.722656 22 -10.527344 C 11.265625 -23.40625 5.898438 -40.46875 5.898438 -61.71875 L 5.898438 -191.324219 C 5.898438 -213.25 11.058594 -230.644531 21.375 -243.503906 C 32.054688 -256.820312 48.648438 -263.476562 71.15625 -263.476562 Z M 71.15625 -249.863281 C 53.003906 -249.863281 39.949219 -244.90625 31.992188 -234.984375 C 23.671875 -224.613281 19.511719 -210.058594 19.511719 -191.324219 L 19.511719 -61.71875 C 19.511719 -43.757812 23.828125 -29.597656 32.457031 -19.242188 C 40.777344 -9.257812 53.675781 -4.265625 71.15625 -4.265625 C 88.617188 -4.265625 101.449219 -9.246094 109.648438 -19.210938 C 118.171875 -29.570312 122.4375 -43.738281 122.4375 -61.71875 L 122.4375 -100.199219 C 122.4375 -117.183594 119.085938 -130.539062 112.382812 -140.265625 C 106.234375 -149.195312 96.121094 -153.65625 82.046875 -153.65625 C 73.285156 -153.65625 66.035156 -151.695312 60.296875 -147.769531 C 54.558594 -143.839844 50.246094 -138.175781 47.367188 -130.769531 L 34.21875 -133.238281 L 34.21875 -190.234375 C 34.21875 -205.484375 37.058594 -217.089844 42.746094 -225.050781 C 48.945312 -233.726562 58.65625 -238.066406 71.882812 -238.066406 C 84.523438 -238.066406 93.945312 -234.035156 100.148438 -225.96875 C 105.929688 -218.453125 108.820312 -208.113281 108.820312 -194.953125 L 108.820312 -188.417969 L 102.015625 -188.417969 L 102.015625 -195.226562 L 128.515625 -195.226562 L 128.515625 -188.417969 L 121.710938 -188.417969 L 121.710938 -193.140625 C 121.710938 -211.121094 117.566406 -225.175781 109.273438 -235.292969 C 101.316406 -245.007812 88.613281 -249.863281 71.15625 -249.863281 Z M 71.15625 -127.882812 C 63.007812 -127.882812 57.195312 -125.578125 53.71875 -120.96875 C 49.792969 -115.765625 47.832031 -108.117188 47.832031 -98.023438 L 47.832031 -59.902344 C 47.832031 -49.804688 49.792969 -42.15625 53.71875 -36.957031 C 57.195312 -32.347656 63.007812 -30.042969 71.15625 -30.042969 C 79.09375 -30.042969 84.863281 -32.367188 88.460938 -37.019531 C 92.476562 -42.207031 94.480469 -49.835938 94.480469 -59.902344 L 94.480469 -98.023438 C 94.480469 -108.089844 92.476562 -115.714844 88.460938 -120.902344 C 84.863281 -125.554688 79.09375 -127.882812 71.15625 -127.882812 Z M 71.15625 -141.496094 C 83.546875 -141.496094 92.90625 -137.410156 99.230469 -129.234375 C 105.140625 -121.59375 108.097656 -111.1875 108.097656 -98.023438 L 108.097656 -59.902344 C 108.097656 -46.734375 105.140625 -36.332031 99.230469 -28.691406 C 92.90625 -20.515625 83.546875 -16.425781 71.15625 -16.425781 C 58.488281 -16.425781 49.054688 -20.535156 42.851562 -28.753906 C 37.09375 -36.382812 34.21875 -46.765625 34.21875 -59.902344 L 34.21875 -98.023438 C 34.21875 -111.160156 37.09375 -121.542969 42.851562 -129.167969 C 49.054688 -137.386719 58.488281 -141.496094 71.15625 -141.496094 Z M 71.15625 -141.496094 "/></g></g></g></g></g></svg>